<?xml version="1.0" standalone="no"?><!DOCTYPE svg PUBLIC "-//W3C//DTD SVG 1.1//EN" "http://www.w3.org/Graphics/SVG/1.1/DTD/svg11.dtd"><svg t="1528959749659" class="icon" style="" viewBox="0 0 1024 1024" version="1.1" xmlns="http://www.w3.org/2000/svg" p-id="4397" xmlns:xlink="http://www.w3.org/1999/xlink" width="200" height="200"><defs><style type="text/css"></style></defs><path d="M371.2 704H320v-85.333333h85.333333l8.533334 32c6.4 27.733333-14.933333 53.333333-42.666667 53.333333zM789.333333 768s-251.733333-149.333333-384-149.333333V320c123.733333 0 384-149.333333 384-149.333333v597.333333z" fill="#90CAF9" p-id="4398"></path><path d="M192 469.333333m-106.666667 0a106.666667 106.666667 0 1 0 213.333334 0 106.666667 106.666667 0 1 0-213.333334 0Z" fill="#283593" p-id="4399"></path><path d="M853.333333 405.333333h-64v128h64c36.266667 0 64-27.733333 64-64s-27.733333-64-64-64zM396.8 878.933333c-19.2 12.8-53.333333 25.6-98.133333 29.866667-12.8 2.133333-25.6-6.4-29.866667-21.333333L174.933333 595.2S362.666667 462.933333 362.666667 618.666667c0 117.333333 32 179.2 46.933333 202.666666 10.666667 14.933333 10.666667 34.133333 0 49.066667-4.266667 4.266667-8.533333 6.4-12.8 8.533333z" fill="#283593" p-id="4400"></path><path d="M192 618.666667h213.333333V320H192c-23.466667 0-42.666667 19.2-42.666667 42.666667v213.333333c0 23.466667 19.2 42.666667 42.666667 42.666667z" fill="#3F51B5" p-id="4401"></path><path d="M810.666667 810.666667c-23.466667 0-42.666667-19.2-42.666667-42.666667V170.666667c0-23.466667 19.2-42.666667 42.666667-42.666667s42.666667 19.2 42.666666 42.666667v597.333333c0 23.466667-19.2 42.666667-42.666666 42.666667z" fill="#42A5F5" p-id="4402"></path></svg>