<?xml version="1.0" standalone="no"?><!DOCTYPE svg PUBLIC "-//W3C//DTD SVG 1.1//EN" "http://www.w3.org/Graphics/SVG/1.1/DTD/svg11.dtd"><svg t="1528959879269" class="icon" style="" viewBox="0 0 1024 1024" version="1.1" xmlns="http://www.w3.org/2000/svg" p-id="4957" xmlns:xlink="http://www.w3.org/1999/xlink" width="200" height="200"><defs><style type="text/css"></style></defs><path d="M815.296 959.296A128 128 0 0 1 704 1024H128a128 128 0 0 1-128-128V256a128 128 0 0 1 64.704-111.296A160 160 0 0 1 224 0h576A160 160 0 0 1 960 160v640a160 160 0 0 1-144.704 159.296zM832 890.56a96 96 0 0 0 64-90.56v-640A96 96 0 0 0 800 64h-576a96 96 0 0 0-90.56 64H704a128 128 0 0 1 128 128v634.56zM269.248 498.752L178.752 589.248 384 794.496l301.248-301.248-90.496-90.496L384 613.504 269.248 498.752z" p-id="4958"></path></svg>