<?xml version="1.0" standalone="no"?><!DOCTYPE svg PUBLIC "-//W3C//DTD SVG 1.1//EN" "http://www.w3.org/Graphics/SVG/1.1/DTD/svg11.dtd"><svg t="1528959618311" class="icon" style="" viewBox="0 0 1024 1024" version="1.1" xmlns="http://www.w3.org/2000/svg" p-id="3635" xmlns:xlink="http://www.w3.org/1999/xlink" width="200" height="200"><defs><style type="text/css"></style></defs><path d="M475.405312 36.634624l0 365.69088q0 34.854912-20.284416 63.424512t-52.85376 39.99744l0 445.114368q0 29.712384-21.712896 51.42528t-51.42528 21.712896l-73.138176 0q-29.712384 0-51.42528-21.712896t-21.712896-51.42528l0-445.114368q-32.569344-11.42784-52.85376-39.99744t-20.284416-63.424512l0-365.69088q0-14.856192 10.856448-25.71264t25.71264-10.856448 25.71264 10.856448 10.856448 25.71264l0 237.699072q0 14.856192 10.856448 25.71264t25.71264 10.856448 25.71264-10.856448 10.856448-25.71264l0-237.699072q0-14.856192 10.856448-25.71264t25.71264-10.856448 25.71264 10.856448 10.856448 25.71264l0 237.699072q0 14.856192 10.856448 25.71264t25.71264 10.856448 25.71264-10.856448 10.856448-25.71264l0-237.699072q0-14.856192 10.856448-25.71264t25.71264-10.856448 25.71264 10.856448 10.856448 25.71264zm438.829056 0l0 914.2272q0 29.712384-21.712896 51.42528t-51.42528 21.712896l-73.138176 0q-29.712384 0-51.42528-21.712896t-21.712896-51.42528l0-292.552704-127.991808 0q-7.428096 0-12.85632-5.428224t-5.428224-12.85632l0-457.1136q0-75.423744 53.710848-129.134592t129.134592-53.710848l146.276352 0q14.856192 0 25.71264 10.856448t10.856448 25.71264z" p-id="3636"></path></svg>