<?xml version="1.0" standalone="no"?><!DOCTYPE svg PUBLIC "-//W3C//DTD SVG 1.1//EN" "http://www.w3.org/Graphics/SVG/1.1/DTD/svg11.dtd"><svg t="1528959819775" class="icon" style="" viewBox="0 0 1024 1024" version="1.1" xmlns="http://www.w3.org/2000/svg" p-id="4617" xmlns:xlink="http://www.w3.org/1999/xlink" width="200" height="200"><defs><style type="text/css"></style></defs><path d="M515.201925 842.420455l442.85827-426.715615L681.537278 415.70484 515.201925 842.420455zM515.201925 842.420455" p-id="4618"></path><path d="M394.281925 415.70484l118.078279 427.476955 0.51063 0 117.936039-427.476955L394.281925 415.70484zM394.281925 415.70484" p-id="4619"></path><path d="M63.426565 415.70484l447.213461 427.476955L343.55766 415.70484 63.426565 415.70484zM63.426565 415.70484" p-id="4620"></path><path d="M458.735889 178.575118 264.461207 178.575118l97.137341 164.16185L458.735889 178.575118zM458.735889 178.575118" p-id="4621"></path><path d="M632.886231 391.062604 511.76464 186.376805 390.649188 391.062604 632.886231 391.062604zM632.886231 391.062604" p-id="4622"></path><path d="M759.070118 178.575118 564.795437 178.575118l97.137341 164.16185L759.070118 178.575118zM759.070118 178.575118" p-id="4623"></path><path d="M958.060195 391.062604 804.151873 199.809745 690.978301 391.062604 958.060195 391.062604zM958.060195 391.062604" p-id="4624"></path><path d="M218.514759 198.345394 63.426565 391.062604l269.124414 0L218.514759 198.345394zM218.514759 198.345394" p-id="4625"></path></svg>