<?xml version="1.0" standalone="no"?><!DOCTYPE svg PUBLIC "-//W3C//DTD SVG 1.1//EN" "http://www.w3.org/Graphics/SVG/1.1/DTD/svg11.dtd"><svg t="1528959550741" class="icon" style="" viewBox="0 0 1500 1024" version="1.1" xmlns="http://www.w3.org/2000/svg" p-id="2790" xmlns:xlink="http://www.w3.org/1999/xlink" width="292.96875" height="200"><defs><style type="text/css"></style></defs><path d="M316.979002 1012.17403c-23.780951 0-43.003528-19.26558-43.003528-43.003528L273.975475 289.327734c0-23.737947 19.222577-43.003528 43.003528-43.003528s43.003528 19.26558 43.003528 43.003528l0 679.842768C359.98253 992.90845 340.759953 1012.17403 316.979002 1012.17403z" p-id="2791"></path><path d="M657.222913 637.785318l-103.681505-179.582731c-11.868974-20.555686-4.816395-46.873845 15.739291-58.742819 20.512683-11.911977 46.830842-4.859399 58.742819 15.739291l66.44045 115.07744 66.397447-115.07744c11.868974-20.59869 38.230136-27.651268 58.742819-15.739291 20.59869 11.868974 27.651268 38.187133 15.739291 58.742819l-103.638502 179.582731L657.222913 637.785318z" p-id="2792"></path><path d="M694.463968 897.225601c-23.780951 0-43.003528-19.26558-43.003528-43.003528l0-237.938518c0-23.737947 19.222577-43.003528 43.003528-43.003528s43.003528 19.26558 43.003528 43.003528l0 237.938518C737.467495 878.003024 718.244919 897.225601 694.463968 897.225601z" p-id="2793"></path><path d="M832.376281 675.628423l-275.824626 0c-23.780951 0-43.003528-19.26558-43.003528-43.003528s19.222577-43.003528 43.003528-43.003528l275.824626 0c23.780951 0 43.003528 19.26558 43.003528 43.003528S856.157232 675.628423 832.376281 675.628423z" p-id="2794"></path><path d="M832.376281 792.512011l-275.824626 0c-23.780951 0-43.003528-19.26558-43.003528-43.003528s19.222577-43.003528 43.003528-43.003528l275.824626 0c23.780951 0 43.003528 19.26558 43.003528 43.003528S856.157232 792.512011 832.376281 792.512011z" p-id="2795"></path><path d="M1148.022174 457.686545 1148.022174 452.913153 1148.022174 457.686545 1140.195532 456.998488 1141.829666 447.451705 1104.373593 414.59701 1142.947757 379.678145 1142.00168 372.066521 1143.076768 372.023518 1143.807828 378.947086 1143.076768 372.023518 1148.022174 371.679489 1148.022174 375.076768 1151.63447 371.8085 1149.828322 414.59701 1190.380648 414.59701 1149.828322 414.769024 1149.398287 425.863934 1153.09659 457.38552 1148.237191 453.085167Z" p-id="2796"></path><path d="M1147.377121 599.340165 1147.24811 599.211154 1141.571645 598.781119 1142.259701 594.179741 1104.373593 556.207626 1142.216697 518.364522 1141.571645 513.720141 1147.377121 513.204099 1153.741643 513.634134 1148.022174 556.207626 1190.380648 556.207626 1148.022174 556.336637 1153.741643 598.867126Z" p-id="2797"></path><path d="M1147.377121 1024 143.459768 1024C64.333277 1024 0 959.666723 0 880.583235l0-122.689064c0-43.906602 21.759785-84.286914 56.764656-105.44465 8.987737-5.418444 14.320175-14.836217 14.320175-25.243071s-5.332437-19.824626-14.320175-25.200067C21.759785 580.762641 0 540.339325 0 496.475727L0 373.786662c0-79.083487 64.333277-143.416765 143.459768-143.416765l1004.562406-0.258021c62.742147 0 113.787334 51.045187 113.787334 113.787334 0 62.742147-51.045187 113.787334-113.787334 113.787334l-0.215018 0-0.086007 0.086007c-15.180245 0.129011-27.522258 12.55703-27.522258 27.737275s12.342012 27.565261 27.522258 27.737275l0.086007 0.086007 0.215018 0c62.742147 0 113.787334 51.045187 113.787334 113.787334 0 61.624055-48.335965 111.465144-110.046027 113.529313l-3.483286-0.215018-0.903074 0.043004c-14.793214 0.129011-27.135226 12.55703-27.135226 27.737275 0 15.180245 12.342012 27.608265 27.522258 27.737275l0.301025 0.301025c62.742147 0 113.787334 51.045187 113.787334 113.787334 0 62.742147-51.045187 113.787334-113.787334 113.787334l-0.430035-0.043004L1147.377121 1024zM1149.31228 316.118932l-2.064169 0.215018L143.459768 316.376953C111.809172 316.376953 86.007055 342.136066 86.007055 373.786662l0 122.689064c0 13.761129 5.97749 26.232152 15.223249 31.865614 34.918864 21.071729 55.861582 58.011759 55.861582 98.822107s-20.899714 77.793381-55.904586 98.86511C91.984546 731.619016 86.007055 744.133042 86.007055 757.894171l0 122.689064c0 31.650596 25.802117 57.409709 57.452713 57.409709l1003.917353 0 0 3.827314 4.300353-3.913321c11.653956-0.129011 24.167983-12.600034 24.167983-27.909289 0-15.223249-12.342012-27.694272-27.565261-27.780279l-0.903074 0.043004-0.387032-0.387032 0 0.043004c-62.183101-0.559046-112.755249-51.604233-112.755249-113.744331 0-62.140097 50.572148-113.142281 112.755249-113.744331l0 0 1.032085-0.086007 2.32219 0.172014c14.363178-1.161095 25.458088-12.987065 25.458088-27.479254 0-15.266252-12.342012-27.694272-27.565261-27.780279l-0.903074 0.043004-0.387032-0.387032 0 0.258021c-62.183101-0.559046-112.755249-51.604233-112.755249-113.744331s50.572148-113.142281 112.755249-113.744331l0.043004 4.300353 4.601377-4.214346c11.653956-0.129011 24.167983-12.600034 24.167983-27.909289C1175.802453 328.976986 1164.019486 316.806988 1149.31228 316.118932z" p-id="2798"></path><path d="M554.530489 286.403494c-23.780951 0-43.003528-19.26558-43.003528-43.003528L511.526961 59.215858c0-23.737947 19.222577-43.003528 43.003528-43.003528s43.003528 19.26558 43.003528 43.003528L597.534016 243.399966C597.534016 267.137914 578.268436 286.403494 554.530489 286.403494z" p-id="2799"></path><path d="M1384.885604 227.660675 1384.756593 227.531665 1377.532001 226.843608 1378.521082 221.296153 1341.882076 184.528137 1379.983202 150.039308 1378.822107 142.083655 1385.530657 141.567613 1385.530657 145.007895 1389.185957 141.696624 1387.379808 184.528137 1427.889132 184.528137 1387.336805 184.657148 1386.949773 194.461952 1391.551151 227.144633Z" p-id="2800"></path><path d="M1384.885604 369.228288 1384.756593 369.099278 1378.822107 368.669242 1379.553166 363.852847 1341.882076 326.09575 1379.510163 288.467663 1378.822107 283.651268 1384.885604 283.092222 1391.551151 283.608265 1385.530657 326.09575 1427.889132 326.09575 1385.530657 326.224761 1391.551151 368.712246Z" p-id="2801"></path><path d="M1384.885604 793.888124l-239.357635 0c-23.780951 0-43.003528-19.26558-43.003528-43.003528s19.222577-43.003528 43.003528-43.003528l239.357635 0 0 3.827314 4.300353-3.913321c11.653956-0.129011 24.167983-12.600034 24.167983-27.909289 0-15.223249-12.342012-27.694272-27.608265-27.780279l-0.860071 0.043004-0.387032-0.387032 0 0.043004c-62.183101-0.559046-112.755249-51.604233-112.755249-113.744331 0-62.140097 50.572148-113.142281 112.755249-113.744331l0 0 0.989081-0.086007 2.32219 0.172014c14.406182-1.161095 25.501092-12.987065 25.501092-27.479254 0-15.266252-12.342012-27.694272-27.608265-27.780279l-0.860071 0.043004-0.387032-0.387032 0 0.258021c-62.183101-0.559046-112.755249-51.604233-112.755249-113.744331s50.572148-113.142281 112.755249-113.744331l0.043004 4.300353 4.601377-4.214346c11.653956-0.129011 24.167983-12.600034 24.167983-27.909289 0-14.879221-11.782967-27.092222-26.533177-27.780279l-2.021166 0.215018L380.968251 86.265076c-31.650596 0-57.452713 25.759113-57.452713 57.409709l0 122.689064c0 23.737947-19.222577 43.003528-43.003528 43.003528s-43.003528-19.26558-43.003528-43.003528L237.508483 143.717789c0-79.083487 64.333277-143.416765 143.459768-143.416765L1385.530657 0c62.742147 0 113.787334 51.045187 113.787334 113.787334 0 62.742147-51.088191 113.787334-113.787334 113.787334l-0.172014 0-0.086007 0.086007c-15.180245 0.129011-27.522258 12.55703-27.522258 27.737275s12.342012 27.565261 27.522258 27.737275l0.086007 0.086007 0.172014 0c62.742147 0 113.787334 51.045187 113.787334 113.787334 0 61.624055-48.335965 111.465144-110.046027 113.529313l-3.526289-0.215018-0.903074 0.043004c-14.793214 0.129011-27.135226 12.55703-27.135226 27.737275 0 15.180245 12.342012 27.608265 27.522258 27.737275l0.301025 0.301025c62.742147 0 113.787334 51.088191 113.787334 113.787334 0 62.742147-51.088191 113.787334-113.787334 113.787334l-0.387032-0.043004L1384.885604 793.888124z" p-id="2802"></path></svg>